<svg xmlns="http://www.w3.org/2000/svg" width="900" height="700" viewBox="0 0 900 700" role="img" aria-labelledby="title"><title id="title">单球 · 明暗研究</title><rect width="100%" height="100%" fill="white"/><g data-role="dots" data-mode="halftone" fill="#161616" stroke="none"><circle cx="505.581" cy="254.558" r="0.537"/><circle cx="509.117" cy="258.094" r="1.189"/><circle cx="512.652" cy="261.630" r="1.198"/><circle cx="516.188" cy="265.165" r="1.222"/><circle cx="519.723" cy="268.701" r="1.255"/><circle cx="523.259" cy="272.236" r="1.296"/><circle cx="526.795" cy="275.772" r="1.347"/><circle cx="530.330" cy="279.307" r="1.299"/><circle cx="533.866" cy="282.843" r="0.415"/><circle cx="491.439" cy="247.487" r="1.042"/><circle cx="494.975" cy="251.023" r="1.008"/><circle cx="498.510" cy="254.558" r="1.002"/><circle cx="502.046" cy="258.094" r="1.011"/><circle cx="505.581" cy="261.630" r="1.029"/><circle cx="509.117" cy="265.165" r="1.055"/><circle cx="512.652" cy="268.701" r="1.087"/><circle cx="516.188" cy="272.236" r="1.125"/><circle cx="519.723" cy="275.772" r="1.167"/><circle cx="523.259" cy="279.307" r="1.214"/><circle cx="526.795" cy="282.843" r="1.266"/><circle cx="530.330" cy="286.378" r="1.323"/><circle cx="533.866" cy="289.914" r="1.388"/><circle cx="537.401" cy="293.449" r="1.462"/><circle cx="540.937" cy="296.985" r="1.018"/><circle cx="480.833" cy="243.952" r="0.930"/><circle cx="484.368" cy="247.487" r="0.884"/><circle cx="487.904" cy="251.023" r="0.868"/><circle cx="491.439" cy="254.558" r="0.869"/><circle cx="494.975" cy="258.094" r="0.880"/><circle cx="498.510" cy="261.630" r="0.900"/><circle cx="502.046" cy="265.165" r="0.926"/><circle cx="505.581" cy="268.701" r="0.958"/><circle cx="509.117" cy="272.236" r="0.994"/><circle cx="512.652" cy="275.772" r="1.035"/><circle cx="516.188" cy="279.307" r="1.079"/><circle cx="519.723" cy="282.843" r="1.126"/><circle cx="523.259" cy="286.378" r="1.177"/><circle cx="526.795" cy="289.914" r="1.232"/><circle cx="530.330" cy="293.449" r="1.290"/><circle cx="533.866" cy="296.985" r="1.354"/><circle cx="537.401" cy="300.520" r="1.423"/><circle cx="540.937" cy="304.056" r="1.503"/><circle cx="544.472" cy="307.591" r="1.525"/><circle cx="470.226" cy="240.416" r="0.884"/><circle cx="473.762" cy="243.952" r="0.801"/><circle cx="477.297" cy="247.487" r="0.766"/><circle cx="480.833" cy="251.023" r="0.754"/><circle cx="484.368" cy="254.558" r="0.755"/><circle cx="487.904" cy="258.094" r="0.767"/><circle cx="491.439" cy="261.630" r="0.787"/><circle cx="494.975" cy="265.165" r="0.813"/><circle cx="498.510" cy="268.701" r="0.844"/><circle cx="502.046" cy="272.236" r="0.880"/><circle cx="505.581" cy="275.772" r="0.920"/><circle cx="509.117" cy="279.307" r="0.962"/><circle cx="512.652" cy="282.843" r="1.008"/><circle cx="516.188" cy="286.378" r="1.056"/><circle cx="519.723" cy="289.914" r="1.108"/><circle cx="523.259" cy="293.449" r="1.162"/><circle cx="526.795" cy="296.985" r="1.218"/><circle cx="530.330" cy="300.520" r="1.279"/><circle cx="533.866" cy="304.056" r="1.343"/><circle cx="537.401" cy="307.591" r="1.412"/><circle cx="540.937" cy="311.127" r="1.489"/><circle cx="544.472" cy="314.663" r="1.578"/><circle cx="548.008" cy="318.198" r="0.806"/><circle cx="463.155" cy="240.416" r="0.772"/><circle cx="466.690" cy="243.952" r="0.700"/><circle cx="470.226" cy="247.487" r="0.666"/><circle cx="473.762" cy="251.023" r="0.652"/><circle cx="477.297" cy="254.558" r="0.652"/><circle cx="480.833" cy="258.094" r="0.663"/><circle cx="484.368" cy="261.630" r="0.682"/><circle cx="487.904" cy="265.165" r="0.708"/><circle cx="491.439" cy="268.701" r="0.739"/><circle cx="494.975" cy="272.236" r="0.774"/><circle cx="498.510" cy="275.772" r="0.814"/><circle cx="502.046" cy="279.307" r="0.856"/><circle cx="505.581" cy="282.843" r="0.901"/><circle cx="509.117" cy="286.378" r="0.948"/><circle cx="512.652" cy="289.914" r="0.998"/><circle cx="516.188" cy="293.449" r="1.050"/><circle cx="519.723" cy="296.985" r="1.104"/><circle cx="523.259" cy="300.520" r="1.160"/><circle cx="526.795" cy="304.056" r="1.219"/><circle cx="530.330" cy="307.591" r="1.281"/><circle cx="533.866" cy="311.127" r="1.346"/><circle cx="537.401" cy="314.663" r="1.416"/><circle cx="540.937" cy="318.198" r="1.492"/><circle cx="544.472" cy="321.734" r="1.579"/><circle cx="548.008" cy="325.269" r="1.688"/><circle cx="456.084" cy="240.416" r="0.692"/><circle cx="459.619" cy="243.952" r="0.616"/><circle cx="463.155" cy="247.487" r="0.577"/><circle cx="466.690" cy="251.023" r="0.559"/><circle cx="470.226" cy="254.558" r="0.556"/><circle cx="473.762" cy="258.094" r="0.565"/><circle cx="477.297" cy="261.630" r="0.583"/><circle cx="480.833" cy="265.165" r="0.608"/><circle cx="484.368" cy="268.701" r="0.639"/><circle cx="487.904" cy="272.236" r="0.674"/><circle cx="491.439" cy="275.772" r="0.713"/><circle cx="494.975" cy="279.307" r="0.755"/><circle cx="498.510" cy="282.843" r="0.800"/><circle cx="502.046" cy="286.378" r="0.847"/><circle cx="505.581" cy="289.914" r="0.896"/><circle cx="509.117" cy="293.449" r="0.947"/><circle cx="512.652" cy="296.985" r="1.000"/><circle cx="516.188" cy="300.520" r="1.054"/><circle cx="519.723" cy="304.056" r="1.111"/><circle cx="523.259" cy="307.591" r="1.169"/><circle cx="526.795" cy="311.127" r="1.230"/><circle cx="530.330" cy="314.663" r="1.294"/><circle cx="533.866" cy="318.198" r="1.360"/><circle cx="537.401" cy="321.734" r="1.431"/><circle cx="540.937" cy="325.269" r="1.508"/><circle cx="544.472" cy="328.805" r="1.595"/><circle cx="548.008" cy="332.340" r="1.702"/><circle cx="449.013" cy="240.416" r="0.633"/><circle cx="452.548" cy="243.952" r="0.546"/><circle cx="456.084" cy="247.487" r="0.497"/><circle cx="459.619" cy="251.023" r="0.473"/><circle cx="463.155" cy="254.558" r="0.465"/><circle cx="466.690" cy="258.094" r="0.471"/><circle cx="470.226" cy="261.630" r="0.486"/><circle cx="473.762" cy="265.165" r="0.510"/><circle cx="477.297" cy="268.701" r="0.541"/><circle cx="480.833" cy="272.236" r="0.576"/><circle cx="484.368" cy="275.772" r="0.615"/><circle cx="487.904" cy="279.307" r="0.658"/><circle cx="491.439" cy="282.843" r="0.703"/><circle cx="494.975" cy="286.378" r="0.750"/><circle cx="498.510" cy="289.914" r="0.799"/><circle cx="502.046" cy="293.449" r="0.850"/><circle cx="505.581" cy="296.985" r="0.902"/><circle cx="509.117" cy="300.520" r="0.956"/><circle cx="512.652" cy="304.056" r="1.011"/><circle cx="516.188" cy="307.591" r="1.068"/><circle cx="519.723" cy="311.127" r="1.127"/><circle cx="523.259" cy="314.663" r="1.187"/><circle cx="526.795" cy="318.198" r="1.250"/><circle cx="530.330" cy="321.734" r="1.315"/><circle cx="533.866" cy="325.269" r="1.383"/><circle cx="537.401" cy="328.805" r="1.455"/><circle cx="540.937" cy="332.340" r="1.534"/><circle cx="544.472" cy="335.876" r="1.622"/><circle cx="548.008" cy="339.411" r="1.731"/><circle cx="441.942" cy="240.416" r="0.599"/><circle cx="445.477" cy="243.952" r="0.491"/><circle cx="449.013" cy="247.487" r="0.428"/><circle cx="452.548" cy="251.023" r="0.393"/><circle cx="456.084" cy="254.558" r="0.378"/><circle cx="459.619" cy="258.094" r="0.378"/><circle cx="463.155" cy="261.630" r="0.391"/><circle cx="466.690" cy="265.165" r="0.414"/><circle cx="470.226" cy="268.701" r="0.444"/><circle cx="473.762" cy="272.236" r="0.479"/><circle cx="477.297" cy="275.772" r="0.519"/><circle cx="480.833" cy="279.307" r="0.562"/><circle cx="484.368" cy="282.843" r="0.608"/><circle cx="487.904" cy="286.378" r="0.656"/><circle cx="491.439" cy="289.914" r="0.706"/><circle cx="494.975" cy="293.449" r="0.757"/><circle cx="498.510" cy="296.985" r="0.809"/><circle cx="502.046" cy="300.520" r="0.863"/><circle cx="505.581" cy="304.056" r="0.918"/><circle cx="509.117" cy="307.591" r="0.974"/><circle cx="512.652" cy="311.127" r="1.031"/><circle cx="516.188" cy="314.663" r="1.090"/><circle cx="519.723" cy="318.198" r="1.150"/><circle cx="523.259" cy="321.734" r="1.212"/><circle cx="526.795" cy="325.269" r="1.276"/><circle cx="530.330" cy="328.805" r="1.343"/><circle cx="533.866" cy="332.340" r="1.412"/><circle cx="537.401" cy="335.876" r="1.487"/><circle cx="540.937" cy="339.411" r="1.567"/><circle cx="544.472" cy="342.947" r="1.659"/><circle cx="548.008" cy="346.482" r="1.774"/><circle cx="434.871" cy="240.416" r="0.596"/><circle cx="438.406" cy="243.952" r="0.454"/><circle cx="441.942" cy="247.487" r="0.372"/><circle cx="445.477" cy="251.023" r="0.322"/><circle cx="449.013" cy="254.558" r="0.294"/><circle cx="452.548" cy="258.094" r="0.286"/><circle cx="456.084" cy="261.630" r="0.295"/><circle cx="459.619" cy="265.165" r="0.315"/><circle cx="463.155" cy="268.701" r="0.345"/><circle cx="466.690" cy="272.236" r="0.381"/><circle cx="470.226" cy="275.772" r="0.422"/><circle cx="473.762" cy="279.307" r="0.467"/><circle cx="477.297" cy="282.843" r="0.514"/><circle cx="480.833" cy="286.378" r="0.564"/><circle cx="484.368" cy="289.914" r="0.614"/><circle cx="487.904" cy="293.449" r="0.666"/><circle cx="491.439" cy="296.985" r="0.719"/><circle cx="494.975" cy="300.520" r="0.773"/><circle cx="498.510" cy="304.056" r="0.828"/><circle cx="502.046" cy="307.591" r="0.884"/><circle cx="505.581" cy="311.127" r="0.941"/><circle cx="509.117" cy="314.663" r="0.999"/><circle cx="512.652" cy="318.198" r="1.058"/><circle cx="516.188" cy="321.734" r="1.118"/><circle cx="519.723" cy="325.269" r="1.180"/><circle cx="523.259" cy="328.805" r="1.243"/><circle cx="526.795" cy="332.340" r="1.309"/><circle cx="530.330" cy="335.876" r="1.377"/><circle cx="533.866" cy="339.411" r="1.448"/><circle cx="537.401" cy="342.947" r="1.525"/><circle cx="540.937" cy="346.482" r="1.609"/><circle cx="544.472" cy="350.018" r="1.705"/><circle cx="548.008" cy="353.553" r="1.551"/><circle cx="427.800" cy="240.416" r="0.652"/><circle cx="431.335" cy="243.952" r="0.444"/><circle cx="434.871" cy="247.487" r="0.334"/><circle cx="438.406" cy="251.023" r="0.262"/><circle cx="441.942" cy="254.558" r="0.215"/><circle cx="452.548" cy="265.165" r="0.210"/><circle cx="456.084" cy="268.701" r="0.240"/><circle cx="459.619" cy="272.236" r="0.278"/><circle cx="463.155" cy="275.772" r="0.322"/><circle cx="466.690" cy="279.307" r="0.370"/><circle cx="470.226" cy="282.843" r="0.419"/><circle cx="473.762" cy="286.378" r="0.471"/><circle cx="477.297" cy="289.914" r="0.523"/><circle cx="480.833" cy="293.449" r="0.577"/><circle cx="484.368" cy="296.985" r="0.631"/><circle cx="487.904" cy="300.520" r="0.686"/><circle cx="491.439" cy="304.056" r="0.742"/><circle cx="494.975" cy="307.591" r="0.798"/><circle cx="498.510" cy="311.127" r="0.855"/><circle cx="502.046" cy="314.663" r="0.912"/><circle cx="505.581" cy="318.198" r="0.971"/><circle cx="509.117" cy="321.734" r="1.030"/><circle cx="512.652" cy="325.269" r="1.090"/><circle cx="516.188" cy="328.805" r="1.152"/><circle cx="519.723" cy="332.340" r="1.215"/><circle cx="523.259" cy="335.876" r="1.280"/><circle cx="526.795" cy="339.411" r="1.347"/><circle cx="530.330" cy="342.947" r="1.417"/><circle cx="533.866" cy="346.482" r="1.490"/><circle cx="537.401" cy="350.018" r="1.570"/><circle cx="540.937" cy="353.553" r="1.658"/><circle cx="544.472" cy="357.089" r="1.762"/><circle cx="548.008" cy="360.624" r="0.209"/><circle cx="424.264" cy="243.952" r="0.470"/><circle cx="427.800" cy="247.487" r="0.322"/><circle cx="431.335" cy="251.023" r="0.219"/><circle cx="456.084" cy="275.772" r="0.213"/><circle cx="459.619" cy="279.307" r="0.266"/><circle cx="463.155" cy="282.843" r="0.321"/><circle cx="466.690" cy="286.378" r="0.376"/><circle cx="470.226" cy="289.914" r="0.431"/><circle cx="473.762" cy="293.449" r="0.487"/><circle cx="477.297" cy="296.985" r="0.543"/><circle cx="480.833" cy="300.520" r="0.600"/><circle cx="484.368" cy="304.056" r="0.657"/><circle cx="487.904" cy="307.591" r="0.714"/><circle cx="491.439" cy="311.127" r="0.771"/><circle cx="494.975" cy="314.663" r="0.829"/><circle cx="498.510" cy="318.198" r="0.887"/><circle cx="502.046" cy="321.734" r="0.946"/><circle cx="505.581" cy="325.269" r="1.006"/><circle cx="509.117" cy="328.805" r="1.066"/><circle cx="512.652" cy="332.340" r="1.128"/><circle cx="516.188" cy="335.876" r="1.191"/><circle cx="519.723" cy="339.411" r="1.255"/><circle cx="523.259" cy="342.947" r="1.321"/><circle cx="526.795" cy="346.482" r="1.390"/><circle cx="530.330" cy="350.018" r="1.462"/><circle cx="533.866" cy="353.553" r="1.538"/><circle cx="537.401" cy="357.089" r="1.621"/><circle cx="540.937" cy="360.624" r="1.715"/><circle cx="544.472" cy="364.160" r="1.833"/><circle cx="417.193" cy="243.952" r="0.561"/><circle cx="420.729" cy="247.487" r="0.345"/><circle cx="456.084" cy="282.843" r="0.212"/><circle cx="459.619" cy="286.378" r="0.275"/><circle cx="463.155" cy="289.914" r="0.336"/><circle cx="466.690" cy="293.449" r="0.396"/><circle cx="470.226" cy="296.985" r="0.455"/><circle cx="473.762" cy="300.520" r="0.514"/><circle cx="477.297" cy="304.056" r="0.573"/><circle cx="480.833" cy="307.591" r="0.631"/><circle cx="484.368" cy="311.127" r="0.690"/><circle cx="487.904" cy="314.663" r="0.748"/><circle cx="491.439" cy="318.198" r="0.807"/><circle cx="494.975" cy="321.734" r="0.866"/><circle cx="498.510" cy="325.269" r="0.925"/><circle cx="502.046" cy="328.805" r="0.985"/><circle cx="505.581" cy="332.340" r="1.046"/><circle cx="509.117" cy="335.876" r="1.108"/><circle cx="512.652" cy="339.411" r="1.170"/><circle cx="516.188" cy="342.947" r="1.234"/><circle cx="519.723" cy="346.482" r="1.300"/><circle cx="523.259" cy="350.018" r="1.368"/><circle cx="526.795" cy="353.553" r="1.438"/><circle cx="530.330" cy="357.089" r="1.513"/><circle cx="533.866" cy="360.624" r="1.592"/><circle cx="537.401" cy="364.160" r="1.680"/><circle cx="540.937" cy="367.696" r="1.784"/><circle cx="544.472" cy="371.231" r="0.638"/><circle cx="413.657" cy="247.487" r="0.417"/><circle cx="417.193" cy="251.023" r="0.234"/><circle cx="456.084" cy="289.914" r="0.233"/><circle cx="459.619" cy="293.449" r="0.301"/><circle cx="463.155" cy="296.985" r="0.365"/><circle cx="466.690" cy="300.520" r="0.428"/><circle cx="470.226" cy="304.056" r="0.489"/><circle cx="473.762" cy="307.591" r="0.550"/><circle cx="477.297" cy="311.127" r="0.610"/><circle cx="480.833" cy="314.663" r="0.669"/><circle cx="484.368" cy="318.198" r="0.729"/><circle cx="487.904" cy="321.734" r="0.788"/><circle cx="491.439" cy="325.269" r="0.848"/><circle cx="494.975" cy="328.805" r="0.908"/><circle cx="498.510" cy="332.340" r="0.968"/><circle cx="502.046" cy="335.876" r="1.029"/><circle cx="505.581" cy="339.411" r="1.091"/><circle cx="509.117" cy="342.947" r="1.153"/><circle cx="512.652" cy="346.482" r="1.217"/><circle cx="516.188" cy="350.018" r="1.282"/><circle cx="519.723" cy="353.553" r="1.349"/><circle cx="523.259" cy="357.089" r="1.419"/><circle cx="526.795" cy="360.624" r="1.492"/><circle cx="530.330" cy="364.160" r="1.569"/><circle cx="533.866" cy="367.696" r="1.653"/><circle cx="537.401" cy="371.231" r="1.749"/><circle cx="540.937" cy="374.767" r="1.871"/><circle cx="406.586" cy="247.487" r="0.403"/><circle cx="410.122" cy="251.023" r="0.310"/><circle cx="456.084" cy="296.985" r="0.270"/><circle cx="459.619" cy="300.520" r="0.339"/><circle cx="463.155" cy="304.056" r="0.405"/><circle cx="466.690" cy="307.591" r="0.468"/><circle cx="470.226" cy="311.127" r="0.530"/><circle cx="473.762" cy="314.663" r="0.592"/><circle cx="477.297" cy="318.198" r="0.652"/><circle cx="480.833" cy="321.734" r="0.713"/><circle cx="484.368" cy="325.269" r="0.773"/><circle cx="487.904" cy="328.805" r="0.833"/><circle cx="491.439" cy="332.340" r="0.893"/><circle cx="494.975" cy="335.876" r="0.954"/><circle cx="498.510" cy="339.411" r="1.015"/><circle cx="502.046" cy="342.947" r="1.077"/><circle cx="505.581" cy="346.482" r="1.139"/><circle cx="509.117" cy="350.018" r="1.203"/><circle cx="512.652" cy="353.553" r="1.268"/><circle cx="516.188" cy="357.089" r="1.334"/><circle cx="519.723" cy="360.624" r="1.403"/><circle cx="523.259" cy="364.160" r="1.475"/><circle cx="526.795" cy="367.696" r="1.551"/><circle cx="530.330" cy="371.231" r="1.632"/><circle cx="533.866" cy="374.767" r="1.723"/><circle cx="537.401" cy="378.302" r="1.832"/><circle cx="403.051" cy="251.023" r="0.455"/><circle cx="406.586" cy="254.558" r="0.219"/><circle cx="452.548" cy="300.520" r="0.244"/><circle cx="456.084" cy="304.056" r="0.318"/><circle cx="459.619" cy="307.591" r="0.386"/><circle cx="463.155" cy="311.127" r="0.452"/><circle cx="466.690" cy="314.663" r="0.515"/><circle cx="470.226" cy="318.198" r="0.578"/><circle cx="473.762" cy="321.734" r="0.639"/><circle cx="477.297" cy="325.269" r="0.700"/><circle cx="480.833" cy="328.805" r="0.761"/><circle cx="484.368" cy="332.340" r="0.821"/><circle cx="487.904" cy="335.876" r="0.882"/><circle cx="491.439" cy="339.411" r="0.943"/><circle cx="494.975" cy="342.947" r="1.004"/><circle cx="498.510" cy="346.482" r="1.066"/><circle cx="502.046" cy="350.018" r="1.128"/><circle cx="505.581" cy="353.553" r="1.192"/><circle cx="509.117" cy="357.089" r="1.256"/><circle cx="512.652" cy="360.624" r="1.323"/><circle cx="516.188" cy="364.160" r="1.391"/><circle cx="519.723" cy="367.696" r="1.462"/><circle cx="523.259" cy="371.231" r="1.536"/><circle cx="526.795" cy="374.767" r="1.616"/><circle cx="530.330" cy="378.302" r="1.703"/><circle cx="533.866" cy="381.838" r="1.805"/><circle cx="537.401" cy="385.373" r="1.360"/><circle cx="399.515" cy="254.558" r="0.366"/><circle cx="449.013" cy="304.056" r="0.224"/><circle cx="452.548" cy="307.591" r="0.301"/><circle cx="456.084" cy="311.127" r="0.372"/><circle cx="459.619" cy="314.663" r="0.439"/><circle cx="463.155" cy="318.198" r="0.504"/><circle cx="466.690" cy="321.734" r="0.567"/><circle cx="470.226" cy="325.269" r="0.629"/><circle cx="473.762" cy="328.805" r="0.691"/><circle cx="477.297" cy="332.340" r="0.752"/><circle cx="480.833" cy="335.876" r="0.813"/><circle cx="484.368" cy="339.411" r="0.874"/><circle cx="487.904" cy="342.947" r="0.934"/><circle cx="491.439" cy="346.482" r="0.996"/><circle cx="494.975" cy="350.018" r="1.057"/><circle cx="498.510" cy="353.553" r="1.120"/><circle cx="502.046" cy="357.089" r="1.183"/><circle cx="505.581" cy="360.624" r="1.248"/><circle cx="509.117" cy="364.160" r="1.314"/><circle cx="512.652" cy="367.696" r="1.382"/><circle cx="516.188" cy="371.231" r="1.452"/><circle cx="519.723" cy="374.767" r="1.525"/><circle cx="523.259" cy="378.302" r="1.604"/><circle cx="526.795" cy="381.838" r="1.689"/><circle cx="530.330" cy="385.373" r="1.785"/><circle cx="533.866" cy="388.909" r="1.910"/><circle cx="395.980" cy="258.094" r="0.303"/><circle cx="445.477" cy="307.591" r="0.211"/><circle cx="449.013" cy="311.127" r="0.290"/><circle cx="452.548" cy="314.663" r="0.363"/><circle cx="456.084" cy="318.198" r="0.431"/><circle cx="459.619" cy="321.734" r="0.496"/><circle cx="463.155" cy="325.269" r="0.560"/><circle cx="466.690" cy="328.805" r="0.623"/><circle cx="470.226" cy="332.340" r="0.685"/><circle cx="473.762" cy="335.876" r="0.746"/><circle cx="477.297" cy="339.411" r="0.807"/><circle cx="480.833" cy="342.947" r="0.868"/><circle cx="484.368" cy="346.482" r="0.929"/><circle cx="487.904" cy="350.018" r="0.990"/><circle cx="491.439" cy="353.553" r="1.052"/><circle cx="494.975" cy="357.089" r="1.114"/><circle cx="498.510" cy="360.624" r="1.178"/><circle cx="502.046" cy="364.160" r="1.242"/><circle cx="505.581" cy="367.696" r="1.308"/><circle cx="509.117" cy="371.231" r="1.375"/><circle cx="512.652" cy="374.767" r="1.445"/><circle cx="516.188" cy="378.302" r="1.518"/><circle cx="519.723" cy="381.838" r="1.595"/><circle cx="523.259" cy="385.373" r="1.678"/><circle cx="526.795" cy="388.909" r="1.772"/><circle cx="530.330" cy="392.444" r="1.888"/><circle cx="388.909" cy="258.094" r="0.210"/><circle cx="392.444" cy="261.630" r="0.258"/><circle cx="445.477" cy="314.663" r="0.285"/><circle cx="449.013" cy="318.198" r="0.358"/><circle cx="452.548" cy="321.734" r="0.427"/><circle cx="456.084" cy="325.269" r="0.493"/><circle cx="459.619" cy="328.805" r="0.557"/><circle cx="463.155" cy="332.340" r="0.620"/><circle cx="466.690" cy="335.876" r="0.682"/><circle cx="470.226" cy="339.411" r="0.743"/><circle cx="473.762" cy="342.947" r="0.804"/><circle cx="477.297" cy="346.482" r="0.865"/><circle cx="480.833" cy="350.018" r="0.926"/><circle cx="484.368" cy="353.553" r="0.988"/><circle cx="487.904" cy="357.089" r="1.049"/><circle cx="491.439" cy="360.624" r="1.111"/><circle cx="494.975" cy="364.160" r="1.175"/><circle cx="498.510" cy="367.696" r="1.239"/><circle cx="502.046" cy="371.231" r="1.304"/><circle cx="505.581" cy="374.767" r="1.371"/><circle cx="509.117" cy="378.302" r="1.441"/><circle cx="512.652" cy="381.838" r="1.513"/><circle cx="516.188" cy="385.373" r="1.589"/><circle cx="519.723" cy="388.909" r="1.672"/><circle cx="523.259" cy="392.444" r="1.763"/><circle cx="526.795" cy="395.980" r="1.874"/><circle cx="385.373" cy="261.630" r="0.535"/><circle cx="388.909" cy="265.165" r="0.232"/><circle cx="441.942" cy="318.198" r="0.285"/><circle cx="445.477" cy="321.734" r="0.359"/><circle cx="449.013" cy="325.269" r="0.427"/><circle cx="452.548" cy="328.805" r="0.493"/><circle cx="456.084" cy="332.340" r="0.557"/><circle cx="459.619" cy="335.876" r="0.620"/><circle cx="463.155" cy="339.411" r="0.682"/><circle cx="466.690" cy="342.947" r="0.744"/><circle cx="470.226" cy="346.482" r="0.805"/><circle cx="473.762" cy="350.018" r="0.865"/><circle cx="477.297" cy="353.553" r="0.926"/><circle cx="480.833" cy="357.089" r="0.987"/><circle cx="484.368" cy="360.624" r="1.049"/><circle cx="487.904" cy="364.160" r="1.111"/><circle cx="491.439" cy="367.696" r="1.174"/><circle cx="494.975" cy="371.231" r="1.238"/><circle cx="498.510" cy="374.767" r="1.303"/><circle cx="502.046" cy="378.302" r="1.370"/><circle cx="505.581" cy="381.838" r="1.439"/><circle cx="509.117" cy="385.373" r="1.511"/><circle cx="512.652" cy="388.909" r="1.587"/><circle cx="516.188" cy="392.444" r="1.669"/><circle cx="519.723" cy="395.980" r="1.759"/><circle cx="523.259" cy="399.515" r="1.867"/><circle cx="526.795" cy="403.051" r="0.149"/><circle cx="381.838" cy="265.165" r="0.512"/><circle cx="385.373" cy="268.701" r="0.224"/><circle cx="434.871" cy="318.198" r="0.211"/><circle cx="438.406" cy="321.734" r="0.291"/><circle cx="441.942" cy="325.269" r="0.364"/><circle cx="445.477" cy="328.805" r="0.432"/><circle cx="449.013" cy="332.340" r="0.498"/><circle cx="452.548" cy="335.876" r="0.561"/><circle cx="456.084" cy="339.411" r="0.624"/><circle cx="459.619" cy="342.947" r="0.686"/><circle cx="463.155" cy="346.482" r="0.747"/><circle cx="466.690" cy="350.018" r="0.808"/><circle cx="470.226" cy="353.553" r="0.868"/><circle cx="473.762" cy="357.089" r="0.929"/><circle cx="477.297" cy="360.624" r="0.990"/><circle cx="480.833" cy="364.160" r="1.051"/><circle cx="484.368" cy="367.696" r="1.113"/><circle cx="487.904" cy="371.231" r="1.176"/><circle cx="491.439" cy="374.767" r="1.240"/><circle cx="494.975" cy="378.302" r="1.305"/><circle cx="498.510" cy="381.838" r="1.372"/><circle cx="502.046" cy="385.373" r="1.440"/><circle cx="505.581" cy="388.909" r="1.512"/><circle cx="509.117" cy="392.444" r="1.588"/><circle cx="512.652" cy="395.980" r="1.669"/><circle cx="516.188" cy="399.515" r="1.758"/><circle cx="519.723" cy="403.051" r="1.864"/><circle cx="523.259" cy="406.586" r="0.430"/><circle cx="378.302" cy="268.701" r="0.516"/><circle cx="381.838" cy="272.236" r="0.236"/><circle cx="431.335" cy="321.734" r="0.225"/><circle cx="434.871" cy="325.269" r="0.303"/><circle cx="438.406" cy="328.805" r="0.373"/><circle cx="441.942" cy="332.340" r="0.441"/><circle cx="445.477" cy="335.876" r="0.506"/><circle cx="449.013" cy="339.411" r="0.569"/><circle cx="452.548" cy="342.947" r="0.631"/><circle cx="456.084" cy="346.482" r="0.692"/><circle cx="459.619" cy="350.018" r="0.753"/><circle cx="463.155" cy="353.553" r="0.813"/><circle cx="466.690" cy="357.089" r="0.874"/><circle cx="470.226" cy="360.624" r="0.934"/><circle cx="473.762" cy="364.160" r="0.995"/><circle cx="477.297" cy="367.696" r="1.056"/><circle cx="480.833" cy="371.231" r="1.118"/><circle cx="484.368" cy="374.767" r="1.180"/><circle cx="487.904" cy="378.302" r="1.244"/><circle cx="491.439" cy="381.838" r="1.309"/><circle cx="494.975" cy="385.373" r="1.376"/><circle cx="498.510" cy="388.909" r="1.444"/><circle cx="502.046" cy="392.444" r="1.516"/><circle cx="505.581" cy="395.980" r="1.591"/><circle cx="509.117" cy="399.515" r="1.672"/><circle cx="512.652" cy="403.051" r="1.761"/><circle cx="516.188" cy="406.586" r="1.867"/><circle cx="519.723" cy="410.122" r="0.470"/><circle cx="374.767" cy="272.236" r="0.546"/><circle cx="378.302" cy="275.772" r="0.264"/><circle cx="427.800" cy="325.269" r="0.244"/><circle cx="431.335" cy="328.805" r="0.319"/><circle cx="434.871" cy="332.340" r="0.388"/><circle cx="438.406" cy="335.876" r="0.453"/><circle cx="441.942" cy="339.411" r="0.517"/><circle cx="445.477" cy="342.947" r="0.579"/><circle cx="449.013" cy="346.482" r="0.641"/><circle cx="452.548" cy="350.018" r="0.701"/><circle cx="456.084" cy="353.553" r="0.762"/><circle cx="459.619" cy="357.089" r="0.822"/><circle cx="463.155" cy="360.624" r="0.882"/><circle cx="466.690" cy="364.160" r="0.942"/><circle cx="470.226" cy="367.696" r="1.003"/><circle cx="473.762" cy="371.231" r="1.063"/><circle cx="477.297" cy="374.767" r="1.125"/><circle cx="480.833" cy="378.302" r="1.187"/><circle cx="484.368" cy="381.838" r="1.251"/><circle cx="487.904" cy="385.373" r="1.316"/><circle cx="491.439" cy="388.909" r="1.382"/><circle cx="494.975" cy="392.444" r="1.451"/><circle cx="498.510" cy="395.980" r="1.522"/><circle cx="502.046" cy="399.515" r="1.598"/><circle cx="505.581" cy="403.051" r="1.678"/><circle cx="509.117" cy="406.586" r="1.768"/><circle cx="512.652" cy="410.122" r="1.875"/><circle cx="516.188" cy="413.657" r="0.266"/><circle cx="371.231" cy="275.772" r="0.406"/><circle cx="374.767" cy="279.307" r="0.307"/><circle cx="424.264" cy="328.805" r="0.269"/><circle cx="427.800" cy="332.340" r="0.339"/><circle cx="431.335" cy="335.876" r="0.406"/><circle cx="434.871" cy="339.411" r="0.470"/><circle cx="438.406" cy="342.947" r="0.532"/><circle cx="441.942" cy="346.482" r="0.593"/><circle cx="445.477" cy="350.018" r="0.654"/><circle cx="449.013" cy="353.553" r="0.714"/><circle cx="452.548" cy="357.089" r="0.773"/><circle cx="456.084" cy="360.624" r="0.833"/><circle cx="459.619" cy="364.160" r="0.893"/><circle cx="463.155" cy="367.696" r="0.952"/><circle cx="466.690" cy="371.231" r="1.013"/><circle cx="470.226" cy="374.767" r="1.073"/><circle cx="473.762" cy="378.302" r="1.135"/><circle cx="477.297" cy="381.838" r="1.197"/><circle cx="480.833" cy="385.373" r="1.260"/><circle cx="484.368" cy="388.909" r="1.325"/><circle cx="487.904" cy="392.444" r="1.391"/><circle cx="491.439" cy="395.980" r="1.460"/><circle cx="494.975" cy="399.515" r="1.531"/><circle cx="498.510" cy="403.051" r="1.607"/><circle cx="502.046" cy="406.586" r="1.688"/><circle cx="505.581" cy="410.122" r="1.779"/><circle cx="509.117" cy="413.657" r="1.888"/><circle cx="371.231" cy="282.843" r="0.362"/><circle cx="417.193" cy="328.805" r="0.226"/><circle cx="420.729" cy="332.340" r="0.298"/><circle cx="424.264" cy="335.876" r="0.364"/><circle cx="427.800" cy="339.411" r="0.428"/><circle cx="431.335" cy="342.947" r="0.490"/><circle cx="434.871" cy="346.482" r="0.550"/><circle cx="438.406" cy="350.018" r="0.610"/><circle cx="441.942" cy="353.553" r="0.670"/><circle cx="445.477" cy="357.089" r="0.729"/><circle cx="449.013" cy="360.624" r="0.788"/><circle cx="452.548" cy="364.160" r="0.847"/><circle cx="456.084" cy="367.696" r="0.906"/><circle cx="459.619" cy="371.231" r="0.965"/><circle cx="463.155" cy="374.767" r="1.025"/><circle cx="466.690" cy="378.302" r="1.085"/><circle cx="470.226" cy="381.838" r="1.146"/><circle cx="473.762" cy="385.373" r="1.208"/><circle cx="477.297" cy="388.909" r="1.272"/><circle cx="480.833" cy="392.444" r="1.336"/><circle cx="484.368" cy="395.980" r="1.403"/><circle cx="487.904" cy="399.515" r="1.471"/><circle cx="491.439" cy="403.051" r="1.543"/><circle cx="494.975" cy="406.586" r="1.619"/><circle cx="498.510" cy="410.122" r="1.701"/><circle cx="502.046" cy="413.657" r="1.793"/><circle cx="505.581" cy="417.193" r="1.906"/><circle cx="367.696" cy="286.378" r="0.432"/><circle cx="371.231" cy="289.914" r="0.253"/><circle cx="413.657" cy="332.340" r="0.265"/><circle cx="417.193" cy="335.876" r="0.330"/><circle cx="420.729" cy="339.411" r="0.392"/><circle cx="424.264" cy="342.947" r="0.453"/><circle cx="427.800" cy="346.482" r="0.513"/><circle cx="431.335" cy="350.018" r="0.572"/><circle cx="434.871" cy="353.553" r="0.631"/><circle cx="438.406" cy="357.089" r="0.689"/><circle cx="441.942" cy="360.624" r="0.747"/><circle cx="445.477" cy="364.160" r="0.805"/><circle cx="449.013" cy="367.696" r="0.863"/><circle cx="452.548" cy="371.231" r="0.922"/><circle cx="456.084" cy="374.767" r="0.981"/><circle cx="459.619" cy="378.302" r="1.040"/><circle cx="463.155" cy="381.838" r="1.100"/><circle cx="466.690" cy="385.373" r="1.161"/><circle cx="470.226" cy="388.909" r="1.223"/><circle cx="473.762" cy="392.444" r="1.286"/><circle cx="477.297" cy="395.980" r="1.350"/><circle cx="480.833" cy="399.515" r="1.417"/><circle cx="484.368" cy="403.051" r="1.486"/><circle cx="487.904" cy="406.586" r="1.558"/><circle cx="491.439" cy="410.122" r="1.635"/><circle cx="494.975" cy="413.657" r="1.718"/><circle cx="498.510" cy="417.193" r="1.812"/><circle cx="502.046" cy="420.729" r="1.932"/><circle cx="364.160" cy="289.914" r="0.518"/><circle cx="367.696" cy="293.449" r="0.332"/><circle cx="406.586" cy="332.340" r="0.244"/><circle cx="410.122" cy="335.876" r="0.306"/><circle cx="413.657" cy="339.411" r="0.365"/><circle cx="417.193" cy="342.947" r="0.424"/><circle cx="420.729" cy="346.482" r="0.482"/><circle cx="424.264" cy="350.018" r="0.539"/><circle cx="427.800" cy="353.553" r="0.597"/><circle cx="431.335" cy="357.089" r="0.654"/><circle cx="434.871" cy="360.624" r="0.711"/><circle cx="438.406" cy="364.160" r="0.768"/><circle cx="441.942" cy="367.696" r="0.825"/><circle cx="445.477" cy="371.231" r="0.883"/><circle cx="449.013" cy="374.767" r="0.940"/><circle cx="452.548" cy="378.302" r="0.999"/><circle cx="456.084" cy="381.838" r="1.058"/><circle cx="459.619" cy="385.373" r="1.117"/><circle cx="463.155" cy="388.909" r="1.178"/><circle cx="466.690" cy="392.444" r="1.239"/><circle cx="470.226" cy="395.980" r="1.302"/><circle cx="473.762" cy="399.515" r="1.367"/><circle cx="477.297" cy="403.051" r="1.434"/><circle cx="480.833" cy="406.586" r="1.503"/><circle cx="484.368" cy="410.122" r="1.576"/><circle cx="487.904" cy="413.657" r="1.653"/><circle cx="491.439" cy="417.193" r="1.738"/><circle cx="494.975" cy="420.729" r="1.837"/><circle cx="498.510" cy="424.264" r="1.804"/><circle cx="360.624" cy="293.449" r="0.639"/><circle cx="364.160" cy="296.985" r="0.418"/><circle cx="367.696" cy="300.520" r="0.290"/><circle cx="399.515" cy="332.340" r="0.240"/><circle cx="403.051" cy="335.876" r="0.294"/><circle cx="406.586" cy="339.411" r="0.349"/><circle cx="410.122" cy="342.947" r="0.404"/><circle cx="413.657" cy="346.482" r="0.459"/><circle cx="417.193" cy="350.018" r="0.514"/><circle cx="420.729" cy="353.553" r="0.569"/><circle cx="424.264" cy="357.089" r="0.624"/><circle cx="427.800" cy="360.624" r="0.680"/><circle cx="431.335" cy="364.160" r="0.735"/><circle cx="434.871" cy="367.696" r="0.791"/><circle cx="438.406" cy="371.231" r="0.848"/><circle cx="441.942" cy="374.767" r="0.904"/><circle cx="445.477" cy="378.302" r="0.962"/><circle cx="449.013" cy="381.838" r="1.019"/><circle cx="452.548" cy="385.373" r="1.078"/><circle cx="456.084" cy="388.909" r="1.137"/><circle cx="459.619" cy="392.444" r="1.197"/><circle cx="463.155" cy="395.980" r="1.259"/><circle cx="466.690" cy="399.515" r="1.322"/><circle cx="470.226" cy="403.051" r="1.386"/><circle cx="473.762" cy="406.586" r="1.453"/><circle cx="477.297" cy="410.122" r="1.523"/><circle cx="480.833" cy="413.657" r="1.597"/><circle cx="484.368" cy="417.193" r="1.676"/><circle cx="487.904" cy="420.729" r="1.763"/><circle cx="491.439" cy="424.264" r="1.868"/><circle cx="494.975" cy="427.800" r="0.355"/><circle cx="360.624" cy="300.520" r="0.516"/><circle cx="364.160" cy="304.056" r="0.380"/><circle cx="367.696" cy="307.591" r="0.289"/><circle cx="371.231" cy="311.127" r="0.224"/><circle cx="388.909" cy="328.805" r="0.214"/><circle cx="392.444" cy="332.340" r="0.254"/><circle cx="395.980" cy="335.876" r="0.298"/><circle cx="399.515" cy="339.411" r="0.345"/><circle cx="403.051" cy="342.947" r="0.394"/><circle cx="406.586" cy="346.482" r="0.445"/><circle cx="410.122" cy="350.018" r="0.496"/><circle cx="413.657" cy="353.553" r="0.549"/><circle cx="417.193" cy="357.089" r="0.601"/><circle cx="420.729" cy="360.624" r="0.655"/><circle cx="424.264" cy="364.160" r="0.709"/><circle cx="427.800" cy="367.696" r="0.763"/><circle cx="431.335" cy="371.231" r="0.818"/><circle cx="434.871" cy="374.767" r="0.873"/><circle cx="438.406" cy="378.302" r="0.929"/><circle cx="441.942" cy="381.838" r="0.985"/><circle cx="445.477" cy="385.373" r="1.042"/><circle cx="449.013" cy="388.909" r="1.100"/><circle cx="452.548" cy="392.444" r="1.159"/><circle cx="456.084" cy="395.980" r="1.219"/><circle cx="459.619" cy="399.515" r="1.281"/><circle cx="463.155" cy="403.051" r="1.344"/><circle cx="466.690" cy="406.586" r="1.408"/><circle cx="470.226" cy="410.122" r="1.476"/><circle cx="473.762" cy="413.657" r="1.546"/><circle cx="477.297" cy="417.193" r="1.621"/><circle cx="480.833" cy="420.729" r="1.702"/><circle cx="484.368" cy="424.264" r="1.794"/><circle cx="487.904" cy="427.800" r="1.908"/><circle cx="357.089" cy="304.056" r="0.638"/><circle cx="360.624" cy="307.591" r="0.477"/><circle cx="364.160" cy="311.127" r="0.381"/><circle cx="367.696" cy="314.663" r="0.317"/><circle cx="371.231" cy="318.198" r="0.277"/><circle cx="374.767" cy="321.734" r="0.256"/><circle cx="378.302" cy="325.269" r="0.253"/><circle cx="381.838" cy="328.805" r="0.265"/><circle cx="385.373" cy="332.340" r="0.288"/><circle cx="388.909" cy="335.876" r="0.319"/><circle cx="392.444" cy="339.411" r="0.356"/><circle cx="395.980" cy="342.947" r="0.397"/><circle cx="399.515" cy="346.482" r="0.442"/><circle cx="403.051" cy="350.018" r="0.488"/><circle cx="406.586" cy="353.553" r="0.537"/><circle cx="410.122" cy="357.089" r="0.586"/><circle cx="413.657" cy="360.624" r="0.637"/><circle cx="417.193" cy="364.160" r="0.688"/><circle cx="420.729" cy="367.696" r="0.740"/><circle cx="424.264" cy="371.231" r="0.793"/><circle cx="427.800" cy="374.767" r="0.847"/><circle cx="431.335" cy="378.302" r="0.901"/><circle cx="434.871" cy="381.838" r="0.956"/><circle cx="438.406" cy="385.373" r="1.012"/><circle cx="441.942" cy="388.909" r="1.068"/><circle cx="445.477" cy="392.444" r="1.126"/><circle cx="449.013" cy="395.980" r="1.184"/><circle cx="452.548" cy="399.515" r="1.244"/><circle cx="456.084" cy="403.051" r="1.305"/><circle cx="459.619" cy="406.586" r="1.369"/><circle cx="463.155" cy="410.122" r="1.434"/><circle cx="466.690" cy="413.657" r="1.502"/><circle cx="470.226" cy="417.193" r="1.573"/><circle cx="473.762" cy="420.729" r="1.650"/><circle cx="477.297" cy="424.264" r="1.734"/><circle cx="480.833" cy="427.800" r="1.832"/><circle cx="484.368" cy="431.335" r="1.307"/><circle cx="357.089" cy="311.127" r="0.586"/><circle cx="360.624" cy="314.663" r="0.477"/><circle cx="364.160" cy="318.198" r="0.409"/><circle cx="367.696" cy="321.734" r="0.366"/><circle cx="371.231" cy="325.269" r="0.342"/><circle cx="374.767" cy="328.805" r="0.335"/><circle cx="378.302" cy="332.340" r="0.341"/><circle cx="381.838" cy="335.876" r="0.358"/><circle cx="385.373" cy="339.411" r="0.383"/><circle cx="388.909" cy="342.947" r="0.415"/><circle cx="392.444" cy="346.482" r="0.452"/><circle cx="395.980" cy="350.018" r="0.492"/><circle cx="399.515" cy="353.553" r="0.535"/><circle cx="403.051" cy="357.089" r="0.580"/><circle cx="406.586" cy="360.624" r="0.627"/><circle cx="410.122" cy="364.160" r="0.675"/><circle cx="413.657" cy="367.696" r="0.724"/><circle cx="417.193" cy="371.231" r="0.775"/><circle cx="420.729" cy="374.767" r="0.826"/><circle cx="424.264" cy="378.302" r="0.879"/><circle cx="427.800" cy="381.838" r="0.932"/><circle cx="431.335" cy="385.373" r="0.986"/><circle cx="434.871" cy="388.909" r="1.041"/><circle cx="438.406" cy="392.444" r="1.097"/><circle cx="441.942" cy="395.980" r="1.154"/><circle cx="445.477" cy="399.515" r="1.212"/><circle cx="449.013" cy="403.051" r="1.272"/><circle cx="452.548" cy="406.586" r="1.333"/><circle cx="456.084" cy="410.122" r="1.397"/><circle cx="459.619" cy="413.657" r="1.462"/><circle cx="463.155" cy="417.193" r="1.531"/><circle cx="466.690" cy="420.729" r="1.605"/><circle cx="470.226" cy="424.264" r="1.684"/><circle cx="473.762" cy="427.800" r="1.773"/><circle cx="477.297" cy="431.335" r="1.882"/><circle cx="353.553" cy="314.663" r="0.728"/><circle cx="357.089" cy="318.198" r="0.582"/><circle cx="360.624" cy="321.734" r="0.503"/><circle cx="364.160" cy="325.269" r="0.455"/><circle cx="367.696" cy="328.805" r="0.427"/><circle cx="371.231" cy="332.340" r="0.415"/><circle cx="374.767" cy="335.876" r="0.416"/><circle cx="378.302" cy="339.411" r="0.428"/><circle cx="381.838" cy="342.947" r="0.449"/><circle cx="385.373" cy="346.482" r="0.476"/><circle cx="388.909" cy="350.018" r="0.508"/><circle cx="392.444" cy="353.553" r="0.544"/><circle cx="395.980" cy="357.089" r="0.584"/><circle cx="399.515" cy="360.624" r="0.626"/><circle cx="403.051" cy="364.160" r="0.670"/><circle cx="406.586" cy="367.696" r="0.716"/><circle cx="410.122" cy="371.231" r="0.763"/><circle cx="413.657" cy="374.767" r="0.812"/><circle cx="417.193" cy="378.302" r="0.862"/><circle cx="420.729" cy="381.838" r="0.913"/><circle cx="424.264" cy="385.373" r="0.965"/><circle cx="427.800" cy="388.909" r="1.019"/><circle cx="431.335" cy="392.444" r="1.073"/><circle cx="434.871" cy="395.980" r="1.128"/><circle cx="438.406" cy="399.515" r="1.185"/><circle cx="441.942" cy="403.051" r="1.243"/><circle cx="445.477" cy="406.586" r="1.303"/><circle cx="449.013" cy="410.122" r="1.364"/><circle cx="452.548" cy="413.657" r="1.428"/><circle cx="456.084" cy="417.193" r="1.495"/><circle cx="459.619" cy="420.729" r="1.565"/><circle cx="463.155" cy="424.264" r="1.641"/><circle cx="466.690" cy="427.800" r="1.724"/><circle cx="470.226" cy="431.335" r="1.821"/><circle cx="473.762" cy="434.871" r="1.043"/><circle cx="353.553" cy="321.734" r="0.709"/><circle cx="357.089" cy="325.269" r="0.606"/><circle cx="360.624" cy="328.805" r="0.548"/><circle cx="364.160" cy="332.340" r="0.514"/><circle cx="367.696" cy="335.876" r="0.497"/><circle cx="371.231" cy="339.411" r="0.493"/><circle cx="374.767" cy="342.947" r="0.500"/><circle cx="378.302" cy="346.482" r="0.516"/><circle cx="381.838" cy="350.018" r="0.538"/><circle cx="385.373" cy="353.553" r="0.566"/><circle cx="388.909" cy="357.089" r="0.599"/><circle cx="392.444" cy="360.624" r="0.635"/><circle cx="395.980" cy="364.160" r="0.675"/><circle cx="399.515" cy="367.696" r="0.716"/><circle cx="403.051" cy="371.231" r="0.760"/><circle cx="406.586" cy="374.767" r="0.806"/><circle cx="410.122" cy="378.302" r="0.853"/><circle cx="413.657" cy="381.838" r="0.901"/><circle cx="417.193" cy="385.373" r="0.951"/><circle cx="420.729" cy="388.909" r="1.002"/><circle cx="424.264" cy="392.444" r="1.055"/><circle cx="427.800" cy="395.980" r="1.108"/><circle cx="431.335" cy="399.515" r="1.163"/><circle cx="434.871" cy="403.051" r="1.220"/><circle cx="438.406" cy="406.586" r="1.277"/><circle cx="441.942" cy="410.122" r="1.337"/><circle cx="445.477" cy="413.657" r="1.399"/><circle cx="449.013" cy="417.193" r="1.464"/><circle cx="452.548" cy="420.729" r="1.532"/><circle cx="456.084" cy="424.264" r="1.604"/><circle cx="459.619" cy="427.800" r="1.683"/><circle cx="463.155" cy="431.335" r="1.773"/><circle cx="466.690" cy="434.871" r="1.888"/><circle cx="353.553" cy="328.805" r="0.728"/><circle cx="357.089" cy="332.340" r="0.650"/><circle cx="360.624" cy="335.876" r="0.605"/><circle cx="364.160" cy="339.411" r="0.581"/><circle cx="367.696" cy="342.947" r="0.572"/><circle cx="371.231" cy="346.482" r="0.574"/><circle cx="374.767" cy="350.018" r="0.585"/><circle cx="378.302" cy="353.553" r="0.604"/><circle cx="381.838" cy="357.089" r="0.628"/><circle cx="385.373" cy="360.624" r="0.657"/><circle cx="388.909" cy="364.160" r="0.690"/><circle cx="392.444" cy="367.696" r="0.727"/><circle cx="395.980" cy="371.231" r="0.766"/><circle cx="399.515" cy="374.767" r="0.808"/><circle cx="403.051" cy="378.302" r="0.851"/><circle cx="406.586" cy="381.838" r="0.897"/><circle cx="410.122" cy="385.373" r="0.944"/><circle cx="413.657" cy="388.909" r="0.992"/><circle cx="417.193" cy="392.444" r="1.042"/><circle cx="420.729" cy="395.980" r="1.094"/><circle cx="424.264" cy="399.515" r="1.147"/><circle cx="427.800" cy="403.051" r="1.201"/><circle cx="431.335" cy="406.586" r="1.258"/><circle cx="434.871" cy="410.122" r="1.316"/><circle cx="438.406" cy="413.657" r="1.376"/><circle cx="441.942" cy="417.193" r="1.439"/><circle cx="445.477" cy="420.729" r="1.504"/><circle cx="449.013" cy="424.264" r="1.574"/><circle cx="452.548" cy="427.800" r="1.650"/><circle cx="456.084" cy="431.335" r="1.735"/><circle cx="459.619" cy="434.871" r="1.839"/><circle cx="350.018" cy="332.340" r="0.642"/><circle cx="353.553" cy="335.876" r="0.770"/><circle cx="357.089" cy="339.411" r="0.707"/><circle cx="360.624" cy="342.947" r="0.673"/><circle cx="364.160" cy="346.482" r="0.657"/><circle cx="367.696" cy="350.018" r="0.653"/><circle cx="371.231" cy="353.553" r="0.659"/><circle cx="374.767" cy="357.089" r="0.673"/><circle cx="378.302" cy="360.624" r="0.693"/><circle cx="381.838" cy="364.160" r="0.719"/><circle cx="385.373" cy="367.696" r="0.749"/><circle cx="388.909" cy="371.231" r="0.783"/><circle cx="392.444" cy="374.767" r="0.819"/><circle cx="395.980" cy="378.302" r="0.859"/><circle cx="399.515" cy="381.838" r="0.900"/><circle cx="403.051" cy="385.373" r="0.944"/><circle cx="406.586" cy="388.909" r="0.990"/><circle cx="410.122" cy="392.444" r="1.037"/><circle cx="413.657" cy="395.980" r="1.086"/><circle cx="417.193" cy="399.515" r="1.137"/><circle cx="420.729" cy="403.051" r="1.189"/><circle cx="424.264" cy="406.586" r="1.244"/><circle cx="427.800" cy="410.122" r="1.300"/><circle cx="431.335" cy="413.657" r="1.358"/><circle cx="434.871" cy="417.193" r="1.419"/><circle cx="438.406" cy="420.729" r="1.483"/><circle cx="441.942" cy="424.264" r="1.551"/><circle cx="445.477" cy="427.800" r="1.624"/><circle cx="449.013" cy="431.335" r="1.706"/><circle cx="452.548" cy="434.871" r="1.803"/><circle cx="456.084" cy="438.406" r="0.200"/><circle cx="350.018" cy="339.411" r="0.788"/><circle cx="353.553" cy="342.947" r="0.830"/><circle cx="357.089" cy="346.482" r="0.777"/><circle cx="360.624" cy="350.018" r="0.749"/><circle cx="364.160" cy="353.553" r="0.738"/><circle cx="367.696" cy="357.089" r="0.738"/><circle cx="371.231" cy="360.624" r="0.747"/><circle cx="374.767" cy="364.160" r="0.763"/><circle cx="378.302" cy="367.696" r="0.785"/><circle cx="381.838" cy="371.231" r="0.812"/><circle cx="385.373" cy="374.767" r="0.843"/><circle cx="388.909" cy="378.302" r="0.877"/><circle cx="392.444" cy="381.838" r="0.914"/><circle cx="395.980" cy="385.373" r="0.954"/><circle cx="399.515" cy="388.909" r="0.996"/><circle cx="403.051" cy="392.444" r="1.040"/><circle cx="406.586" cy="395.980" r="1.086"/><circle cx="410.122" cy="399.515" r="1.134"/><circle cx="413.657" cy="403.051" r="1.184"/><circle cx="417.193" cy="406.586" r="1.237"/><circle cx="420.729" cy="410.122" r="1.291"/><circle cx="424.264" cy="413.657" r="1.347"/><circle cx="427.800" cy="417.193" r="1.406"/><circle cx="431.335" cy="420.729" r="1.468"/><circle cx="434.871" cy="424.264" r="1.534"/><circle cx="438.406" cy="427.800" r="1.606"/><circle cx="441.942" cy="431.335" r="1.685"/><circle cx="445.477" cy="434.871" r="1.779"/><circle cx="449.013" cy="438.406" r="0.377"/><circle cx="350.018" cy="346.482" r="0.446"/><circle cx="353.553" cy="350.018" r="0.905"/><circle cx="357.089" cy="353.553" r="0.857"/><circle cx="360.624" cy="357.089" r="0.834"/><circle cx="364.160" cy="360.624" r="0.826"/><circle cx="367.696" cy="364.160" r="0.829"/><circle cx="371.231" cy="367.696" r="0.840"/><circle cx="374.767" cy="371.231" r="0.857"/><circle cx="378.302" cy="374.767" r="0.880"/><circle cx="381.838" cy="378.302" r="0.908"/><circle cx="385.373" cy="381.838" r="0.939"/><circle cx="388.909" cy="385.373" r="0.974"/><circle cx="392.444" cy="388.909" r="1.012"/><circle cx="395.980" cy="392.444" r="1.052"/><circle cx="399.515" cy="395.980" r="1.095"/><circle cx="403.051" cy="399.515" r="1.140"/><circle cx="406.586" cy="403.051" r="1.188"/><circle cx="410.122" cy="406.586" r="1.237"/><circle cx="413.657" cy="410.122" r="1.289"/><circle cx="417.193" cy="413.657" r="1.344"/><circle cx="420.729" cy="417.193" r="1.401"/><circle cx="424.264" cy="420.729" r="1.461"/><circle cx="427.800" cy="424.264" r="1.526"/><circle cx="431.335" cy="427.800" r="1.596"/><circle cx="434.871" cy="431.335" r="1.674"/><circle cx="438.406" cy="434.871" r="1.768"/><circle cx="353.553" cy="357.089" r="1.000"/><circle cx="357.089" cy="360.624" r="0.949"/><circle cx="360.624" cy="364.160" r="0.927"/><circle cx="364.160" cy="367.696" r="0.921"/><circle cx="367.696" cy="371.231" r="0.925"/><circle cx="371.231" cy="374.767" r="0.937"/><circle cx="374.767" cy="378.302" r="0.956"/><circle cx="378.302" cy="381.838" r="0.980"/><circle cx="381.838" cy="385.373" r="1.009"/><circle cx="385.373" cy="388.909" r="1.041"/><circle cx="388.909" cy="392.444" r="1.076"/><circle cx="392.444" cy="395.980" r="1.115"/><circle cx="395.980" cy="399.515" r="1.157"/><circle cx="399.515" cy="403.051" r="1.201"/><circle cx="403.051" cy="406.586" r="1.247"/><circle cx="406.586" cy="410.122" r="1.297"/><circle cx="410.122" cy="413.657" r="1.349"/><circle cx="413.657" cy="417.193" r="1.404"/><circle cx="417.193" cy="420.729" r="1.463"/><circle cx="420.729" cy="424.264" r="1.527"/><circle cx="424.264" cy="427.800" r="1.596"/><circle cx="427.800" cy="431.335" r="1.675"/><circle cx="431.335" cy="434.871" r="1.773"/><circle cx="353.553" cy="364.160" r="0.855"/><circle cx="357.089" cy="367.696" r="1.059"/><circle cx="360.624" cy="371.231" r="1.033"/><circle cx="364.160" cy="374.767" r="1.026"/><circle cx="367.696" cy="378.302" r="1.030"/><circle cx="371.231" cy="381.838" r="1.043"/><circle cx="374.767" cy="385.373" r="1.062"/><circle cx="378.302" cy="388.909" r="1.087"/><circle cx="381.838" cy="392.444" r="1.116"/><circle cx="385.373" cy="395.980" r="1.149"/><circle cx="388.909" cy="399.515" r="1.186"/><circle cx="392.444" cy="403.051" r="1.226"/><circle cx="395.980" cy="406.586" r="1.270"/><circle cx="399.515" cy="410.122" r="1.316"/><circle cx="403.051" cy="413.657" r="1.366"/><circle cx="406.586" cy="417.193" r="1.419"/><circle cx="410.122" cy="420.729" r="1.477"/><circle cx="413.657" cy="424.264" r="1.540"/><circle cx="417.193" cy="427.800" r="1.610"/><circle cx="420.729" cy="431.335" r="1.693"/><circle cx="424.264" cy="434.871" r="0.557"/><circle cx="357.089" cy="374.767" r="0.857"/><circle cx="360.624" cy="378.302" r="1.162"/><circle cx="364.160" cy="381.838" r="1.148"/><circle cx="367.696" cy="385.373" r="1.150"/><circle cx="371.231" cy="388.909" r="1.161"/><circle cx="374.767" cy="392.444" r="1.181"/><circle cx="378.302" cy="395.980" r="1.206"/><circle cx="381.838" cy="399.515" r="1.236"/><circle cx="385.373" cy="403.051" r="1.271"/><circle cx="388.909" cy="406.586" r="1.310"/><circle cx="392.444" cy="410.122" r="1.353"/><circle cx="395.980" cy="413.657" r="1.400"/><circle cx="399.515" cy="417.193" r="1.451"/><circle cx="403.051" cy="420.729" r="1.508"/><circle cx="406.586" cy="424.264" r="1.573"/><circle cx="410.122" cy="427.800" r="1.648"/><circle cx="413.657" cy="431.335" r="0.621"/><circle cx="364.160" cy="388.909" r="0.985"/><circle cx="367.696" cy="392.444" r="1.303"/><circle cx="371.231" cy="395.980" r="1.308"/><circle cx="374.767" cy="399.515" r="1.324"/><circle cx="378.302" cy="403.051" r="1.349"/><circle cx="381.838" cy="406.586" r="1.381"/><circle cx="385.373" cy="410.122" r="1.419"/><circle cx="388.909" cy="413.657" r="1.464"/><circle cx="392.444" cy="417.193" r="1.515"/><circle cx="395.980" cy="420.729" r="1.576"/><circle cx="399.515" cy="424.264" r="0.836"/></g><g data-role="engraving" fill="none" stroke="#161616" stroke-linecap="round" stroke-linejoin="round"><path stroke-width="1.120" d="M550.8 338C550.762 326.257 548.764 314.671 544.758 303.626C533.475 272.522 507.548 248.873 475.54 240.489C466.112 238.02 456.33 236.928 446.59 237.258C434.9 237.653 423.295 240.101 412.441 244.459C400.781 249.141 390.025 256.015 380.879 264.631C371.26 273.694 363.462 284.648 358.047 296.704C352.235 309.647 349.292 323.496 349.201 337.675C349.201 351.855 352.054 365.722 357.783 378.702C363.119 390.793 370.847 401.798 380.408 410.922C389.498 419.597 400.209 426.54 411.838 431.297C422.665 435.725 434.254 438.247 445.941 438.718C455.679 439.111 465.467 438.082 474.911 435.673C507.195 427.44 533.396 403.694 544.758 372.374C548.764 361.329 550.762 349.743 550.8 338"/></g><g font-family="Georgia, 'Times New Roman', serif"><text x="450" y="647" text-anchor="middle" fill="#161616" font-size="19">单球 · 明暗研究</text><text x="450" y="672" text-anchor="middle" fill="#555" font-size="10" letter-spacing="2">ORTHOGRAPHIC • LINE ENGRAVING</text></g></svg>